
<svg version="1.0" xmlns="http://www.w3.org/2000/svg" width="256.000000pt" height="256.000000pt" viewBox="0 0 256.000000 256.000000" preserveAspectRatio="xMidYMid meet"><g transform="translate(0.000000,256.000000) scale(0.100000,-0.100000)" fill="#000000" stroke="none"><path d="M622 1807 c-454 -454 -462 -463 -462 -502 0 -39 8 -48 534 -574 l534 -534 43 6 c41 5 65 28 556 519 283 282 521 526 529 541 33 61 32 62 -449 545 -249 248 -455 452 -459 452 -5 0 -7 -208 -6 -462 l3 -463 222 -5 223 -5 -302 -249 c-166 -137 -307 -249 -313 -249 -6 0 -149 112 -318 249 l-306 249 219 3 220 2 0 470 c0 259 -1 470 -3 470 -1 0 -210 -208 -465 -463z"/></g></svg>
